<svg version="1.1" viewBox="0.0 0.0 960.0 540.0" fill="none" stroke="none" stroke-linecap="square" stroke-miterlimit="10" xmlns:xlink="http://www.w3.org/1999/xlink" xmlns="http://www.w3.org/2000/svg"><clipPath id="g3cc058ebb89_0_0.0"><path d="m0 0l960.0 0l0 540.0l-960.0 0l0 -540.0z" clip-rule="nonzero"/></clipPath><g clip-path="url(#g3cc058ebb89_0_0.0)"><path fill="#ffffff" d="m0 0l960.0 0l0 540.0l-960.0 0z" fill-rule="evenodd"/><path fill="#eeeeee" d="m298.86124 263.4396l0 0c0 -19.85617 16.096619 -35.95276 35.95276 -35.95276l0 0c9.535278 0 18.679993 3.7878723 25.422455 10.530319c6.7424316 6.742447 10.530304 15.8871765 10.530304 25.42244l0 0c0 19.85614 -16.096588 35.95276 -35.95276 35.95276l0 0c-19.85614 0 -35.95276 -16.096619 -35.95276 -35.95276z" fill-rule="evenodd"/><path stroke="#595959" stroke-width="1.4986876640419948" stroke-linejoin="round" stroke-linecap="butt" d="m298.86124 263.4396l0 0c0 -19.85617 16.096619 -35.95276 35.95276 -35.95276l0 0c9.535278 0 18.679993 3.7878723 25.422455 10.530319c6.7424316 6.742447 10.530304 15.8871765 10.530304 25.42244l0 0c0 19.85614 -16.096588 35.95276 -35.95276 35.95276l0 0c-19.85614 0 -35.95276 -16.096619 -35.95276 -35.95276z" fill-rule="evenodd"/><path fill="#000000" d="m325.4449 273.2789l7.6875 -20.015625l2.859375 0l8.1875 20.015625l-3.015625 0l-2.34375 -6.0625l-8.359375 0l-2.203125 6.0625l-2.8125 0zm5.78125 -8.21875l6.78125 0l-2.09375 -5.546875q-0.953125 -2.515625 -1.40625 -4.140625q-0.390625 1.921875 -1.078125 3.828125l-2.203125 5.859375z" fill-rule="nonzero"/><path fill="#eeeeee" d="m569.2537 263.4396l0 0c0 -19.85617 16.096619 -35.95276 35.95276 -35.95276l0 0c9.535278 0 18.679993 3.7878723 25.422424 10.530319c6.7424927 6.742447 10.530334 15.8871765 10.530334 25.42244l0 0c0 19.85614 -16.096619 35.95276 -35.95276 35.95276l0 0c-19.85614 0 -35.95276 -16.096619 -35.95276 -35.95276z" fill-rule="evenodd"/><path stroke="#595959" stroke-width="1.4986876640419948" stroke-linejoin="round" stroke-linecap="butt" d="m569.2537 263.4396l0 0c0 -19.85617 16.096619 -35.95276 35.95276 -35.95276l0 0c9.535278 0 18.679993 3.7878723 25.422424 10.530319c6.7424927 6.742447 10.530334 15.8871765 10.530334 25.42244l0 0c0 19.85614 -16.096619 35.95276 -35.95276 35.95276l0 0c-19.85614 0 -35.95276 -16.096619 -35.95276 -35.95276z" fill-rule="evenodd"/><path fill="#000000" d="m597.9311 273.2789l0 -20.015625l7.5 0q2.296875 0 3.6875 0.609375q1.390625 0.609375 2.171875 1.875q0.78125 1.265625 0.78125 2.640625q0 1.28125 -0.703125 2.421875q-0.6875 1.125 -2.09375 1.828125q1.8125 0.53125 2.78125 1.8125q0.984375 1.28125 0.984375 3.03125q0 1.40625 -0.59375 2.609375q-0.59375 1.203125 -1.46875 1.859375q-0.875 0.65625 -2.1875 1.0q-1.3125 0.328125 -3.234375 0.328125l-7.625 0zm2.640625 -11.609375l4.328125 0q1.765625 0 2.53125 -0.21875q1.015625 -0.3125 1.515625 -1.0q0.515625 -0.703125 0.515625 -1.75q0 -1.0 -0.484375 -1.75q-0.46875 -0.765625 -1.359375 -1.03125q-0.890625 -0.28125 -3.046875 -0.28125l-4.0 0l0 6.03125zm0 9.25l4.984375 0q1.28125 0 1.8125 -0.09375q0.90625 -0.171875 1.515625 -0.546875q0.625 -0.390625 1.015625 -1.109375q0.390625 -0.734375 0.390625 -1.6875q0 -1.125 -0.578125 -1.953125q-0.5625 -0.828125 -1.578125 -1.15625q-1.015625 -0.328125 -2.921875 -0.328125l-4.640625 0l0 6.875z" fill-rule="nonzero"/><path fill="#000000" fill-opacity="0.0" d="m100.373055 261.80182l198.48819 1.6377869" fill-rule="evenodd"/><path stroke="#595959" stroke-width="5.9921259842519685" stroke-linejoin="round" stroke-linecap="butt" d="m100.37306 261.8018l162.53667 1.341156" fill-rule="evenodd"/><path fill="#595959" stroke="#595959" stroke-width="5.9921259842519685" stroke-linecap="butt" d="m262.82803 273.04l27.27359 -9.672699l-27.11026 -10.121414z" fill-rule="evenodd"/><path fill="#000000" fill-opacity="0.0" d="m370.76675 263.4396l198.48819 0" fill-rule="evenodd"/><path stroke="#595959" stroke-width="5.9921259842519685" stroke-linejoin="round" stroke-linecap="butt" d="m370.76678 263.4396l162.5354 0" fill-rule="evenodd"/><path fill="#595959" stroke="#595959" stroke-width="5.9921259842519685" stroke-linecap="butt" d="m533.3022 273.33698l27.192871 -9.897369l-27.192871 -9.8974z" fill-rule="evenodd"/><path fill="#000000" fill-opacity="0.0" d="m641.15924 263.4396l198.48816 0.85040283" fill-rule="evenodd"/><path stroke="#595959" stroke-width="5.9921259842519685" stroke-linejoin="round" stroke-linecap="butt" d="m641.15924 263.4396l162.5357 0.6963501" fill-rule="evenodd"/><path fill="#595959" stroke="#595959" stroke-width="5.9921259842519685" stroke-linecap="butt" d="m803.6526 274.03326l27.234985 -9.780823l-27.150208 -10.013794z" fill-rule="evenodd"/><path fill="#000000" fill-opacity="0.0" d="m131.78822 180.80577l53.196854 0l0 71.90552l-53.196854 0z" fill-rule="evenodd"/><path fill="#595959" d="m159.17885 229.31342l-3.15625 0l0 -20.125q-1.140625 1.078125 -3.0 2.171875q-1.84375 1.09375 -3.328125 1.640625l0 -3.0625q2.65625 -1.25 4.640625 -3.015625q1.984375 -1.765625 2.8125 -3.4375l2.03125 0l0 25.828125z" fill-rule="nonzero"/><path fill="#000000" fill-opacity="0.0" d="m459.26758 180.80577l53.19684 0l0 71.90552l-53.19684 0z" fill-rule="evenodd"/><path fill="#595959" d="m491.36133 226.28217l0 3.03125l-17.0 0q-0.046875 -1.140625 0.359375 -2.1875q0.65625 -1.75 2.078125 -3.421875q1.4375 -1.6875 4.140625 -3.90625q4.1875 -3.4375 5.65625 -5.4375q1.484375 -2.015625 1.484375 -3.8125q0 -1.875 -1.34375 -3.15625q-1.34375 -1.296875 -3.5 -1.296875q-2.28125 0 -3.65625 1.375q-1.359375 1.359375 -1.375 3.78125l-3.25 -0.328125q0.328125 -3.625 2.5 -5.53125q2.1875 -1.90625 5.84375 -1.90625q3.703125 0 5.859375 2.0625q2.171875 2.046875 2.171875 5.078125q0 1.546875 -0.640625 3.046875q-0.625 1.484375 -2.09375 3.140625q-1.46875 1.640625 -4.875 4.515625q-2.84375 2.390625 -3.65625 3.25q-0.796875 0.84375 -1.328125 1.703125l12.625 0z" fill-rule="nonzero"/><path fill="#000000" fill-opacity="0.0" d="m724.0269 180.80577l53.19684 0l0 71.90552l-53.19684 0z" fill-rule="evenodd"/><path fill="#595959" d="m749.6363 229.31342l0 -6.15625l-11.15625 0l0 -2.890625l11.75 -16.671875l2.578125 0l0 16.671875l3.46875 0l0 2.890625l-3.46875 0l0 6.15625l-3.171875 0zm0 -9.046875l0 -11.609375l-8.046875 11.609375l8.046875 0z" fill-rule="nonzero"/><path fill="#eeeeee" d="m569.70184 428.8262l0 0c0 -19.85614 16.096619 -35.95276 35.95276 -35.95276l0 0c9.535278 0 18.679993 3.7878723 25.422485 10.530334c6.7424316 6.7424316 10.530273 15.8871765 10.530273 25.422424l0 0c0 19.85617 -16.096558 35.95276 -35.95276 35.95276l0 0c-19.85614 0 -35.95276 -16.096588 -35.95276 -35.95276z" fill-rule="evenodd"/><path stroke="#595959" stroke-width="1.4986876640419948" stroke-linejoin="round" stroke-linecap="butt" d="m569.70184 428.8262l0 0c0 -19.85614 16.096619 -35.95276 35.95276 -35.95276l0 0c9.535278 0 18.679993 3.7878723 25.422485 10.530334c6.7424316 6.7424316 10.530273 15.8871765 10.530273 25.422424l0 0c0 19.85617 -16.096558 35.95276 -35.95276 35.95276l0 0c-19.85614 0 -35.95276 -16.096588 -35.95276 -35.95276z" fill-rule="evenodd"/><path fill="#000000" d="m611.9987 431.64987l2.640625 0.671875q-0.828125 3.265625 -3.0 4.984375q-2.15625 1.703125 -5.28125 1.703125q-3.234375 0 -5.265625 -1.3125q-2.03125 -1.328125 -3.09375 -3.8125q-1.046875 -2.5 -1.046875 -5.375q0 -3.125 1.1875 -5.453125q1.203125 -2.328125 3.40625 -3.53125q2.203125 -1.203125 4.859375 -1.203125q3.0 0 5.046875 1.53125q2.046875 1.515625 2.84375 4.296875l-2.59375 0.609375q-0.703125 -2.1875 -2.03125 -3.171875q-1.3125 -1.0 -3.328125 -1.0q-2.3125 0 -3.859375 1.109375q-1.546875 1.09375 -2.171875 2.96875q-0.625 1.859375 -0.625 3.828125q0 2.5625 0.734375 4.46875q0.75 1.890625 2.3125 2.84375q1.578125 0.9375 3.40625 0.9375q2.21875 0 3.765625 -1.28125q1.546875 -1.28125 2.09375 -3.8125z" fill-rule="nonzero"/><path fill="#000000" fill-opacity="0.0" d="m605.2065 299.39236l0.44091797 93.480316" fill-rule="evenodd"/><path stroke="#595959" stroke-width="5.9921259842519685" stroke-linejoin="round" stroke-linecap="butt" d="m605.2065 299.39233l0.2713623 57.527985" fill-rule="evenodd"/><path fill="#595959" stroke="#595959" stroke-width="5.9921259842519685" stroke-linecap="butt" d="m595.58057 356.96698l10.025574 27.145874l9.768982 -27.239227z" fill-rule="evenodd"/><path fill="#000000" fill-opacity="0.0" d="m641.59265 428.81885l198.39374 1.4173279" fill-rule="evenodd"/><path stroke="#595959" stroke-width="5.9921259842519685" stroke-linejoin="round" stroke-linecap="butt" d="m641.5927 428.81885l162.44183 1.160492" fill-rule="evenodd"/><path fill="#595959" stroke="#595959" stroke-width="5.9921259842519685" stroke-linecap="butt" d="m803.96387 439.87646l27.262817 -9.70285l-27.12146 -10.0914z" fill-rule="evenodd"/><path fill="#000000" fill-opacity="0.0" d="m569.70184 428.8262l-234.89761 0l0 -129.44882" fill-rule="evenodd"/><path stroke="#595959" stroke-width="5.9921259842519685" stroke-linejoin="round" stroke-linecap="butt" d="m569.70184 428.8262l-234.89761 0l0 -93.49606" fill-rule="evenodd"/><path fill="#595959" stroke="#595959" stroke-width="5.9921259842519685" stroke-linecap="butt" d="m344.70163 335.33014l-9.8974 -27.192871l-9.897369 27.192871z" fill-rule="evenodd"/><path fill="#000000" fill-opacity="0.0" d="m724.0269 343.24805l53.19684 0l0 71.90549l-53.19684 0z" fill-rule="evenodd"/><path fill="#595959" d="m755.9019 372.3338l-3.140625 0.25q-0.421875 -1.875 -1.1875 -2.703125q-1.28125 -1.359375 -3.15625 -1.359375q-1.515625 0 -2.65625 0.84375q-1.484375 1.09375 -2.34375 3.1875q-0.859375 2.078125 -0.890625 5.9375q1.125 -1.734375 2.78125 -2.578125q1.65625 -0.84375 3.453125 -0.84375q3.15625 0 5.375 2.328125q2.234375 2.328125 2.234375 6.0q0 2.421875 -1.046875 4.515625q-1.046875 2.078125 -2.875 3.1875q-1.828125 1.09375 -4.140625 1.09375q-3.953125 0 -6.453125 -2.90625q-2.484375 -2.90625 -2.484375 -9.5625q0 -7.46875 2.765625 -10.84375q2.40625 -2.953125 6.46875 -2.953125q3.03125 0 4.96875 1.703125q1.953125 1.703125 2.328125 4.703125zm-12.890625 11.09375q0 1.625 0.6875 3.125q0.703125 1.484375 1.9375 2.265625q1.25 0.78125 2.625 0.78125q2.0 0 3.4375 -1.609375q1.4375 -1.625 1.4375 -4.390625q0 -2.671875 -1.421875 -4.203125q-1.421875 -1.53125 -3.578125 -1.53125q-2.140625 0 -3.640625 1.53125q-1.484375 1.53125 -1.484375 4.03125z" fill-rule="nonzero"/><path fill="#000000" fill-opacity="0.0" d="m443.39764 343.24805l53.19684 0l0 71.90549l-53.19684 0z" fill-rule="evenodd"/><path fill="#595959" d="m458.91327 384.9588l3.15625 -0.421875q0.546875 2.6875 1.84375 3.875q1.3125 1.1875 3.1875 1.1875q2.234375 0 3.765625 -1.546875q1.53125 -1.546875 1.53125 -3.828125q0 -2.171875 -1.421875 -3.578125q-1.421875 -1.421875 -3.609375 -1.421875q-0.890625 0 -2.234375 0.359375l0.359375 -2.78125q0.3125 0.03125 0.5 0.03125q2.015625 0 3.625 -1.046875q1.625 -1.046875 1.625 -3.25q0 -1.734375 -1.171875 -2.875q-1.171875 -1.140625 -3.03125 -1.140625q-1.84375 0 -3.078125 1.15625q-1.234375 1.15625 -1.578125 3.484375l-3.15625 -0.5625q0.578125 -3.1875 2.625 -4.921875q2.0625 -1.75 5.109375 -1.75q2.109375 0 3.875 0.90625q1.78125 0.90625 2.71875 2.46875q0.9375 1.546875 0.9375 3.3125q0 1.65625 -0.90625 3.03125q-0.890625 1.375 -2.640625 2.171875q2.28125 0.53125 3.546875 2.1875q1.265625 1.65625 1.265625 4.15625q0 3.359375 -2.46875 5.703125q-2.453125 2.34375 -6.203125 2.34375q-3.390625 0 -5.625 -2.015625q-2.234375 -2.015625 -2.546875 -5.234375z" fill-rule="nonzero"/><path fill="#000000" fill-opacity="0.0" d="m635.46027 299.37766l53.19684 0l0 71.90552l-53.19684 0z" fill-rule="evenodd"/><path fill="#595959" d="m650.94464 341.15094l3.328125 -0.28125q0.359375 2.421875 1.703125 3.640625q1.34375 1.21875 3.234375 1.21875q2.28125 0 3.859375 -1.71875q1.59375 -1.71875 1.59375 -4.5625q0 -2.703125 -1.53125 -4.265625q-1.515625 -1.5625 -3.96875 -1.5625q-1.53125 0 -2.765625 0.703125q-1.21875 0.6875 -1.921875 1.78125l-2.96875 -0.375l2.5 -13.21875l12.796875 0l0 3.015625l-10.265625 0l-1.390625 6.921875q2.3125 -1.625 4.859375 -1.625q3.375 0 5.6875 2.34375q2.3125 2.328125 2.3125 6.0q0 3.484375 -2.03125 6.03125q-2.484375 3.125 -6.765625 3.125q-3.5 0 -5.71875 -1.953125q-2.21875 -1.96875 -2.546875 -5.21875z" fill-rule="nonzero"/><path fill="#4a86e8" d="m403.10117 400.03827l0 0c0 -7.945923 6.441437 -14.38736 14.387329 -14.38736l0 0c3.8157654 0 7.4752502 1.5158081 10.173401 4.2139587c2.6981506 2.6981506 4.2139587 6.3576355 4.2139587 10.173401l0 0c0 7.945923 -6.441437 14.38736 -14.38736 14.38736l0 0c-7.9458923 0 -14.387329 -6.441437 -14.387329 -14.38736z" fill-rule="evenodd"/><path stroke="#000000" stroke-width="1.4986876640419948" stroke-linejoin="round" stroke-linecap="butt" d="m403.10117 400.03827l0 0c0 -7.945923 6.441437 -14.38736 14.387329 -14.38736l0 0c3.8157654 0 7.4752502 1.5158081 10.173401 4.2139587c2.6981506 2.6981506 4.2139587 6.3576355 4.2139587 10.173401l0 0c0 7.945923 -6.441437 14.38736 -14.38736 14.38736l0 0c-7.9458923 0 -14.387329 -6.441437 -14.387329 -14.38736z" fill-rule="evenodd"/><path fill="#ffffff" d="m421.11307 401.87497l1.515625 0.375q-0.484375 1.859375 -1.71875 2.84375q-1.234375 0.96875 -3.015625 0.96875q-1.859375 0 -3.015625 -0.75q-1.15625 -0.75 -1.765625 -2.171875q-0.59375 -1.421875 -0.59375 -3.0625q0 -1.796875 0.671875 -3.125q0.6875 -1.328125 1.9375 -2.015625q1.265625 -0.6875 2.78125 -0.6875q1.71875 0 2.890625 0.875q1.171875 0.875 1.625 2.453125l-1.484375 0.34375q-0.40625 -1.234375 -1.15625 -1.796875q-0.75 -0.578125 -1.90625 -0.578125q-1.3125 0 -2.203125 0.640625q-0.875 0.625 -1.234375 1.6875q-0.359375 1.0625 -0.359375 2.1875q0 1.46875 0.421875 2.5625q0.421875 1.078125 1.3125 1.625q0.90625 0.53125 1.953125 0.53125q1.265625 0 2.140625 -0.734375q0.890625 -0.734375 1.203125 -2.171875z" fill-rule="nonzero"/><path fill="#000000" fill-opacity="0.0" d="m417.347 414.42563l0.28305054 14.38736" fill-rule="evenodd"/><path stroke="#000000" stroke-width="1.4986876640419948" stroke-linejoin="round" stroke-linecap="butt" d="m417.347 414.42563l0.28305054 14.38736" fill-rule="evenodd"/><path fill="#42ca5f" d="m392.68475 234.82738l0 0c0 -7.9459076 6.441437 -14.387344 14.38736 -14.387344l0 0c3.8157654 0 7.4752502 1.5158081 10.173401 4.2139587c2.6981506 2.6981506 4.2139587 6.3576202 4.2139587 10.173386l0 0c0 7.945923 -6.441437 14.38736 -14.38736 14.38736l0 0c-7.945923 0 -14.38736 -6.441437 -14.38736 -14.38736z" fill-rule="evenodd"/><path stroke="#000000" stroke-width="1.4986876640419948" stroke-linejoin="round" stroke-linecap="butt" d="m392.68475 234.82738l0 0c0 -7.9459076 6.441437 -14.387344 14.38736 -14.387344l0 0c3.8157654 0 7.4752502 1.5158081 10.173401 4.2139587c2.6981506 2.6981506 4.2139587 6.3576202 4.2139587 10.173386l0 0c0 7.945923 -6.441437 14.38736 -14.38736 14.38736l0 0c-7.945923 0 -14.38736 -6.441437 -14.38736 -14.38736z" fill-rule="evenodd"/><path fill="#ffffff" d="m401.60855 240.6641l0 -11.4375l2.28125 0l2.703125 8.09375q0.375 1.140625 0.546875 1.703125q0.1875 -0.625 0.609375 -1.84375l2.734375 -7.953125l2.03125 0l0 11.4375l-1.453125 0l0 -9.5625l-3.328125 9.5625l-1.359375 0l-3.3125 -9.734375l0 9.734375l-1.453125 0z" fill-rule="nonzero"/><path fill="#000000" fill-opacity="0.0" d="m407.0721 249.21474l0.28302002 14.387344" fill-rule="evenodd"/><path stroke="#000000" stroke-width="1.4986876640419948" stroke-linejoin="round" stroke-linecap="butt" d="m407.0721 249.21474l0.28302002 14.387344" fill-rule="evenodd"/><path fill="#42ca5f" d="m189.50908 233.98274l0 0c0 -7.945923 6.441437 -14.38736 14.38736 -14.38736l0 0c3.8157654 0 7.475235 1.5158081 10.173386 4.2139587c2.698166 2.6981506 4.2139587 6.3576355 4.2139587 10.173401l0 0c0 7.945923 -6.441437 14.38736 -14.387344 14.38736l0 0c-7.945923 0 -14.38736 -6.441437 -14.38736 -14.38736z" fill-rule="evenodd"/><path stroke="#000000" stroke-width="1.4986876640419948" stroke-linejoin="round" stroke-linecap="butt" d="m189.50908 233.98274l0 0c0 -7.945923 6.441437 -14.38736 14.38736 -14.38736l0 0c3.8157654 0 7.475235 1.5158081 10.173386 4.2139587c2.698166 2.6981506 4.2139587 6.3576355 4.2139587 10.173401l0 0c0 7.945923 -6.441437 14.38736 -14.387344 14.38736l0 0c-7.945923 0 -14.38736 -6.441437 -14.38736 -14.38736z" fill-rule="evenodd"/><path fill="#ffffff" d="m198.43289 239.81944l0 -11.4375l2.28125 0l2.703125 8.09375q0.375 1.140625 0.546875 1.703125q0.1875 -0.625 0.609375 -1.84375l2.734375 -7.953125l2.03125 0l0 11.4375l-1.453125 0l0 -9.5625l-3.328125 9.5625l-1.359375 0l-3.3125 -9.734375l0 9.734375l-1.453125 0z" fill-rule="nonzero"/><path fill="#000000" fill-opacity="0.0" d="m203.89644 248.3701l0.28302002 14.387344" fill-rule="evenodd"/><path stroke="#000000" stroke-width="1.4986876640419948" stroke-linejoin="round" stroke-linecap="butt" d="m203.89644 248.3701l0.28302002 14.387344" fill-rule="evenodd"/><path fill="#42ca5f" d="m661.7446 231.83783l0 0c0 -7.945923 6.4414062 -14.38736 14.387329 -14.38736l0 0c3.815796 0 7.4752197 1.5158081 10.173401 4.2139587c2.6981812 2.6981506 4.2139893 6.3576355 4.2139893 10.173401l0 0c0 7.9459076 -6.4414673 14.38736 -14.38739 14.38736l0 0c-7.945923 0 -14.387329 -6.441452 -14.387329 -14.38736z" fill-rule="evenodd"/><path stroke="#000000" stroke-width="1.4986876640419948" stroke-linejoin="round" stroke-linecap="butt" d="m661.7446 231.83783l0 0c0 -7.945923 6.4414062 -14.38736 14.387329 -14.38736l0 0c3.815796 0 7.4752197 1.5158081 10.173401 4.2139587c2.6981812 2.6981506 4.2139893 6.3576355 4.2139893 10.173401l0 0c0 7.9459076 -6.4414673 14.38736 -14.38739 14.38736l0 0c-7.945923 0 -14.387329 -6.441452 -14.387329 -14.38736z" fill-rule="evenodd"/><path fill="#ffffff" d="m670.6684 237.67453l0 -11.4375l2.28125 0l2.703125 8.09375q0.375 1.140625 0.546875 1.703125q0.1875 -0.625 0.609375 -1.84375l2.734375 -7.953125l2.03125 0l0 11.4375l-1.453125 0l0 -9.5625l-3.328125 9.5625l-1.359375 0l-3.3125 -9.734375l0 9.734375l-1.453125 0z" fill-rule="nonzero"/><path fill="#000000" fill-opacity="0.0" d="m676.13196 246.22519l0.28302002 14.38736" fill-rule="evenodd"/><path stroke="#000000" stroke-width="1.4986876640419948" stroke-linejoin="round" stroke-linecap="butt" d="m676.13196 246.22519l0.28302002 14.38736" fill-rule="evenodd"/></g></svg>