<svg version="1.1" viewBox="0.0 0.0 960.0 540.0" fill="none" stroke="none" stroke-linecap="square" stroke-miterlimit="10" xmlns:xlink="http://www.w3.org/1999/xlink" xmlns="http://www.w3.org/2000/svg"><clipPath id="g3c82512b5c0_0_40.0"><path d="m0 0l960.0 0l0 540.0l-960.0 0l0 -540.0z" clip-rule="nonzero"/></clipPath><g clip-path="url(#g3c82512b5c0_0_40.0)"><path fill="#ffffff" d="m0 0l960.0 0l0 540.0l-960.0 0z" fill-rule="evenodd"/><path fill="#eeeeee" d="m352.89502 235.97375l0 0c0 -13.254837 10.745148 -24.0 24.0 -24.0l0 0c6.365204 0 12.469696 2.5285645 16.97055 7.029434c4.500885 4.5008698 7.0294495 10.605362 7.0294495 16.970566l0 0c0 13.254837 -10.745178 24.0 -24.0 24.0l0 0c-13.254852 0 -24.0 -10.745163 -24.0 -24.0z" fill-rule="evenodd"/><path stroke="#595959" stroke-width="1.0" stroke-linejoin="round" stroke-linecap="butt" d="m352.89502 235.97375l0 0c0 -13.254837 10.745148 -24.0 24.0 -24.0l0 0c6.365204 0 12.469696 2.5285645 16.97055 7.029434c4.500885 4.5008698 7.0294495 10.605362 7.0294495 16.970566l0 0c0 13.254837 -10.745178 24.0 -24.0 24.0l0 0c-13.254852 0 -24.0 -10.745163 -24.0 -24.0z" fill-rule="evenodd"/><path fill="#000000" d="m370.64197 242.89375l5.125 -13.359375l1.90625 0l5.46875 13.359375l-2.015625 0l-1.546875 -4.046875l-5.59375 0l-1.46875 4.046875l-1.875 0zm3.859375 -5.484375l4.53125 0l-1.40625 -3.703125q-0.625 -1.6875 -0.9375 -2.765625q-0.265625 1.28125 -0.71875 2.546875l-1.46875 3.921875z" fill-rule="nonzero"/><path fill="#eeeeee" d="m533.4304 235.97375l0 0c0 -13.254837 10.745178 -24.0 24.0 -24.0l0 0c6.3652344 0 12.469727 2.5285645 16.970581 7.029434c4.5008545 4.5008698 7.029419 10.605362 7.029419 16.970566l0 0c0 13.254837 -10.745117 24.0 -24.0 24.0l0 0c-13.254822 0 -24.0 -10.745163 -24.0 -24.0z" fill-rule="evenodd"/><path stroke="#595959" stroke-width="1.0" stroke-linejoin="round" stroke-linecap="butt" d="m533.4304 235.97375l0 0c0 -13.254837 10.745178 -24.0 24.0 -24.0l0 0c6.3652344 0 12.469727 2.5285645 16.970581 7.029434c4.5008545 4.5008698 7.029419 10.605362 7.029419 16.970566l0 0c0 13.254837 -10.745117 24.0 -24.0 24.0l0 0c-13.254822 0 -24.0 -10.745163 -24.0 -24.0z" fill-rule="evenodd"/><path fill="#000000" d="m552.56805 242.89375l0 -13.359375l5.015625 0q1.53125 0 2.453125 0.40625q0.921875 0.40625 1.4375 1.25q0.53125 0.84375 0.53125 1.765625q0 0.859375 -0.46875 1.625q-0.453125 0.75 -1.390625 1.203125q1.203125 0.359375 1.859375 1.21875q0.65625 0.859375 0.65625 2.015625q0 0.9375 -0.40625 1.75q-0.390625 0.796875 -0.984375 1.234375q-0.578125 0.4375 -1.453125 0.671875q-0.875 0.21875 -2.15625 0.21875l-5.09375 0zm1.78125 -7.75l2.875 0q1.1875 0 1.6875 -0.140625q0.671875 -0.203125 1.015625 -0.671875q0.34375 -0.46875 0.34375 -1.171875q0 -0.65625 -0.328125 -1.15625q-0.3125 -0.515625 -0.90625 -0.703125q-0.59375 -0.1875 -2.03125 -0.1875l-2.65625 0l0 4.03125zm0 6.171875l3.3125 0q0.859375 0 1.203125 -0.0625q0.609375 -0.109375 1.015625 -0.359375q0.421875 -0.265625 0.6875 -0.75q0.265625 -0.484375 0.265625 -1.125q0 -0.75 -0.390625 -1.296875q-0.375 -0.546875 -1.0625 -0.765625q-0.671875 -0.234375 -1.953125 -0.234375l-3.078125 0l0 4.59375z" fill-rule="nonzero"/><path fill="#000000" fill-opacity="0.0" d="m400.89502 235.97375l132.5354 0" fill-rule="evenodd"/><path stroke="#595959" stroke-width="4.0" stroke-linejoin="round" stroke-linecap="butt" d="m400.89502 235.97375l108.53543 0" fill-rule="evenodd"/><path fill="#595959" stroke="#595959" stroke-width="4.0" stroke-linecap="butt" d="m509.43045 242.58069l18.152374 -6.6069336l-18.152374 -6.6069336z" fill-rule="evenodd"/><path fill="#000000" fill-opacity="0.0" d="m241.34383 192.60892l35.527573 0l0 48.0l-35.527573 0z" fill-rule="evenodd"/><path fill="#595959" d="m259.28134 224.64893l-2.109375 0l0 -13.4375q-0.75 0.71875 -2.0000153 1.453125q-1.234375 0.71875 -2.21875 1.078125l0 -2.03125q1.78125 -0.828125 3.0937653 -2.015625q1.328125 -1.1875 1.875 -2.296875l1.359375 0l0 17.25z" fill-rule="nonzero"/><path fill="#000000" fill-opacity="0.0" d="m449.39896 180.80577l35.527557 0l0 48.0l-35.527557 0z" fill-rule="evenodd"/><path fill="#595959" d="m470.47708 210.81453l0 2.03125l-11.34375 0q-0.03125 -0.765625 0.234375 -1.46875q0.4375 -1.15625 1.390625 -2.28125q0.953125 -1.125 2.765625 -2.609375q2.796875 -2.296875 3.78125 -3.625q0.984375 -1.34375 0.984375 -2.546875q0 -1.25 -0.90625 -2.109375q-0.890625 -0.859375 -2.328125 -0.859375q-1.515625 0 -2.4375 0.921875q-0.90625 0.90625 -0.921875 2.515625l-2.171875 -0.21875q0.21875 -2.421875 1.671875 -3.6875q1.453125 -1.28125 3.90625 -1.28125q2.46875 0 3.90625 1.375q1.453125 1.359375 1.453125 3.390625q0 1.03125 -0.421875 2.03125q-0.421875 1.0 -1.40625 2.109375q-0.96875 1.09375 -3.25 3.015625q-1.890625 1.59375 -2.4375 2.15625q-0.53125 0.5625 -0.890625 1.140625l8.421875 0z" fill-rule="nonzero"/><path fill="#000000" fill-opacity="0.0" d="m636.7693 180.80577l35.527588 0l0 48.0l-35.527588 0z" fill-rule="evenodd"/><path fill="#595959" d="m646.7849 208.31453l2.109375 -0.28125q0.359375 1.78125 1.234375 2.578125q0.875 0.796875 2.125 0.796875q1.484375 0 2.5 -1.03125q1.03125 -1.03125 1.03125 -2.5625q0 -1.453125 -0.953125 -2.390625q-0.9375 -0.953125 -2.40625 -0.953125q-0.59375 0 -1.484375 0.234375l0.234375 -1.84375q0.203125 0.015625 0.34375 0.015625q1.34375 0 2.421875 -0.703125q1.078125 -0.703125 1.078125 -2.15625q0 -1.171875 -0.796875 -1.921875q-0.78125 -0.765625 -2.015625 -0.765625q-1.234375 0 -2.0625 0.78125q-0.8125 0.765625 -1.046875 2.3125l-2.109375 -0.375q0.390625 -2.125 1.75 -3.28125q1.375 -1.171875 3.421875 -1.171875q1.40625 0 2.578125 0.609375q1.1875 0.59375 1.8125 1.640625q0.640625 1.046875 0.640625 2.21875q0 1.109375 -0.609375 2.03125q-0.59375 0.90625 -1.765625 1.4375q1.53125 0.359375 2.375 1.46875q0.84375 1.109375 0.84375 2.765625q0 2.25 -1.640625 3.828125q-1.640625 1.5625 -4.15625 1.5625q-2.265625 0 -3.765625 -1.34375q-1.484375 -1.359375 -1.6875 -3.5z" fill-rule="nonzero"/><path fill="#eeeeee" d="m533.7297 346.39896l0 0c0 -13.254852 10.745178 -24.0 24.0 -24.0l0 0c6.3651733 0 12.469666 2.5285645 16.97052 7.029419c4.5009155 4.500885 7.02948 10.605377 7.02948 16.970581l0 0c0 13.254822 -10.745178 24.0 -24.0 24.0l0 0c-13.254822 0 -24.0 -10.745178 -24.0 -24.0z" fill-rule="evenodd"/><path stroke="#595959" stroke-width="1.0" stroke-linejoin="round" stroke-linecap="butt" d="m533.7297 346.39896l0 0c0 -13.254852 10.745178 -24.0 24.0 -24.0l0 0c6.3651733 0 12.469666 2.5285645 16.97052 7.029419c4.5009155 4.500885 7.02948 10.605377 7.02948 16.970581l0 0c0 13.254822 -10.745178 24.0 -24.0 24.0l0 0c-13.254822 0 -24.0 -10.745178 -24.0 -24.0z" fill-rule="evenodd"/><path fill="#000000" d="m561.9619 348.63144l1.765625 0.453125q-0.5625 2.171875 -2.0 3.328125q-1.4375 1.140625 -3.53125 1.140625q-2.15625 0 -3.515625 -0.875q-1.34375 -0.890625 -2.0625 -2.546875q-0.703125 -1.671875 -0.703125 -3.59375q0 -2.078125 0.796875 -3.625q0.796875 -1.5625 2.265625 -2.359375q1.484375 -0.8125 3.25 -0.8125q2.0 0 3.359375 1.015625q1.375 1.015625 1.90625 2.875l-1.734375 0.40625q-0.46875 -1.453125 -1.359375 -2.109375q-0.875 -0.671875 -2.203125 -0.671875q-1.546875 0 -2.578125 0.734375q-1.03125 0.734375 -1.453125 1.984375q-0.421875 1.234375 -0.421875 2.5625q0 1.703125 0.5 2.96875q0.5 1.265625 1.546875 1.90625q1.046875 0.625 2.265625 0.625q1.484375 0 2.515625 -0.859375q1.03125 -0.859375 1.390625 -2.546875z" fill-rule="nonzero"/><path fill="#000000" fill-opacity="0.0" d="m557.4304 259.97375l0.31500244 62.4252" fill-rule="evenodd"/><path stroke="#595959" stroke-width="4.0" stroke-linejoin="round" stroke-linecap="butt" d="m557.4304 259.97375l0.19390869 38.425507" fill-rule="evenodd"/><path fill="#595959" stroke="#595959" stroke-width="4.0" stroke-linecap="butt" d="m551.01746 298.4326l6.6984253 18.118835l6.515259 -18.185486z" fill-rule="evenodd"/><path fill="#000000" fill-opacity="0.0" d="m533.7297 346.39896l-156.81891 0l0 -86.4252" fill-rule="evenodd"/><path stroke="#595959" stroke-width="4.0" stroke-linejoin="round" stroke-linecap="butt" d="m533.7297 346.39896l-156.81891 0l0 -62.4252" fill-rule="evenodd"/><path fill="#595959" stroke="#595959" stroke-width="4.0" stroke-linecap="butt" d="m383.5177 283.97375l-6.6069336 -18.152405l-6.6069336 18.152405z" fill-rule="evenodd"/><path fill="#000000" fill-opacity="0.0" d="m613.16296 353.19946l35.527588 0l0 48.0l-35.527588 0z" fill-rule="evenodd"/><path fill="#595959" d="m623.16296 380.73947l2.21875 -0.1875q0.234375 1.609375 1.125 2.4375q0.90625 0.8125 2.171875 0.8125q1.53125 0 2.578125 -1.140625q1.0625 -1.15625 1.0625 -3.0625q0 -1.796875 -1.015625 -2.84375q-1.015625 -1.046875 -2.65625 -1.046875q-1.015625 0 -1.84375 0.46875q-0.8125 0.453125 -1.28125 1.203125l-1.984375 -0.265625l1.65625 -8.828125l8.546875 0l0 2.015625l-6.859375 0l-0.921875 4.625q1.546875 -1.078125 3.25 -1.078125q2.25 0 3.796875 1.5625q1.546875 1.546875 1.546875 4.0q0 2.328125 -1.359375 4.03125q-1.65625 2.09375 -4.515625 2.09375q-2.34375 0 -3.828125 -1.3125q-1.484375 -1.3125 -1.6875 -3.484375z" fill-rule="nonzero"/><path fill="#000000" fill-opacity="0.0" d="m449.39896 289.2651l35.527557 0l0 48.0l-35.527557 0z" fill-rule="evenodd"/><path fill="#595959" d="m470.33646 308.33633l-2.09375 0.15625q-0.28125 -1.234375 -0.796875 -1.796875q-0.859375 -0.90625 -2.109375 -0.90625q-1.0 0 -1.765625 0.5625q-1.0 0.71875 -1.578125 2.125q-0.5625 1.390625 -0.59375 3.96875q0.765625 -1.15625 1.859375 -1.71875q1.109375 -0.5625 2.3125 -0.5625q2.109375 0 3.59375 1.546875q1.484375 1.546875 1.484375 4.015625q0 1.609375 -0.703125 3.0q-0.6875 1.390625 -1.90625 2.140625q-1.21875 0.734375 -2.765625 0.734375q-2.640625 0 -4.3125 -1.9375q-1.65625 -1.953125 -1.65625 -6.40625q0 -4.96875 1.84375 -7.234375q1.59375 -1.96875 4.3125 -1.96875q2.03125 0 3.328125 1.140625q1.296875 1.125 1.546875 3.140625zm-8.609375 7.40625q0 1.078125 0.453125 2.078125q0.46875 1.0 1.296875 1.53125q0.84375 0.515625 1.75 0.515625q1.34375 0 2.296875 -1.078125q0.96875 -1.078125 0.96875 -2.9375q0 -1.78125 -0.953125 -2.796875q-0.953125 -1.03125 -2.390625 -1.03125q-1.421875 0 -2.421875 1.03125q-1.0 1.015625 -1.0 2.6875z" fill-rule="nonzero"/><path fill="#000000" fill-opacity="0.0" d="m577.6352 259.97375l35.527527 0l0 48.0l-35.527527 0z" fill-rule="evenodd"/><path fill="#595959" d="m594.4008 292.01376l0 -4.109375l-7.453125 0l0 -1.9375l7.828125 -11.140625l1.734375 0l0 11.140625l2.3125 0l0 1.9375l-2.3125 0l0 4.109375l-2.109375 0zm0 -6.046875l0 -7.75l-5.390625 7.75l5.390625 0z" fill-rule="nonzero"/><path fill="#eeeeee" d="m456.0 457.8084l0 0c0 -13.254852 10.745178 -24.0 24.0 -24.0l0 0c6.365204 0 12.469696 2.5285645 16.97055 7.029419c4.500885 4.500885 7.0294495 10.605377 7.0294495 16.970581l0 0c0 13.254822 -10.745178 24.0 -24.0 24.0l0 0c-13.254822 0 -24.0 -10.745178 -24.0 -24.0z" fill-rule="evenodd"/><path stroke="#595959" stroke-width="1.0" stroke-linejoin="round" stroke-linecap="butt" d="m456.0 457.8084l0 0c0 -13.254852 10.745178 -24.0 24.0 -24.0l0 0c6.365204 0 12.469696 2.5285645 16.97055 7.029419c4.500885 4.500885 7.0294495 10.605377 7.0294495 16.970581l0 0c0 13.254822 -10.745178 24.0 -24.0 24.0l0 0c-13.254822 0 -24.0 -10.745178 -24.0 -24.0z" fill-rule="evenodd"/><path fill="#000000" d="m474.70102 464.7284l0 -13.359375l4.609375 0q1.546875 0 2.375 0.203125q1.140625 0.25 1.953125 0.953125q1.0625 0.890625 1.578125 2.28125q0.53125 1.390625 0.53125 3.171875q0 1.515625 -0.359375 2.703125q-0.359375 1.171875 -0.921875 1.9375q-0.546875 0.765625 -1.203125 1.21875q-0.65625 0.4375 -1.59375 0.671875q-0.9375 0.21875 -2.140625 0.21875l-4.828125 0zm1.765625 -1.578125l2.859375 0q1.3125 0 2.0625 -0.234375q0.75 -0.25 1.203125 -0.703125q0.625 -0.625 0.96875 -1.6875q0.359375 -1.0625 0.359375 -2.578125q0 -2.09375 -0.6875 -3.21875q-0.6875 -1.125 -1.671875 -1.5q-0.703125 -0.28125 -2.28125 -0.28125l-2.8125 0l0 10.203125z" fill-rule="nonzero"/><path fill="#000000" fill-opacity="0.0" d="m581.4304 235.97375c103.38312 0 216.44336 55.456696 206.76624 110.91339c-9.677185 55.456696 -142.0918 110.91339 -284.18353 110.91339" fill-rule="evenodd"/><path stroke="#595959" stroke-width="4.0" stroke-linejoin="round" stroke-linecap="butt" stroke-dasharray="4.0,12.0" d="m581.4304 235.97375c103.38312 0 216.44336 55.456696 206.76617 110.91339c-4.838562 27.728333 -40.36151 55.456696 -92.43628 76.25296c-26.037354 10.398102 -56.212708 19.063232 -88.7594 25.128815c-16.273376 3.0327454 -33.139587 5.41568 -50.37787 7.0403748c-8.61908 0.8123779 -17.331238 1.4351807 -26.108765 1.8548584c-0.548584 0.026245117 -1.0974121 0.051696777 -1.6464844 0.07632446l-0.86035156 0.037353516" fill-rule="evenodd"/><path fill="#595959" stroke="#595959" stroke-width="4.0" stroke-linecap="butt" d="m527.8635 450.6725l-18.00418 7.000702l18.291962 6.210022z" fill-rule="evenodd"/><path fill="#000000" fill-opacity="0.0" d="m581.7297 346.39896c12.499756 0 28.983337 18.638153 24.999573 33.194214c-3.9837646 14.556091 -28.434814 25.03012 -54.877747 33.194244c-26.442932 8.164124 -54.877747 14.018372 -54.877747 28.036743" fill-rule="evenodd"/><path stroke="#595959" stroke-width="4.0" stroke-linejoin="round" stroke-linecap="butt" stroke-dasharray="4.0,12.0" d="m581.7297 346.39896c12.499756 0 28.983337 18.638153 24.999573 33.194214c-3.9837646 14.556122 -28.434814 25.03012 -54.877747 33.194244c-6.610718 2.040985 -13.345947 3.937683 -19.730225 5.853607c-3.1921997 0.9580078 -6.29657 1.9208069 -9.253845 2.9088745c-1.4786377 0.49401855 -2.9204712 0.99438477 -4.318115 1.5036316c-0.6987915 0.25463867 -1.3865356 0.5114746 -2.062317 0.770813c-0.33795166 0.12973022 -0.6727905 0.26000977 -1.0045776 0.39105225l-0.85998535 0.34457397" fill-rule="evenodd"/><path fill="#595959" stroke="#595959" stroke-width="4.0" stroke-linecap="butt" d="m510.1451 419.70148l-8.871246 17.159912l17.825928 -7.442932z" fill-rule="evenodd"/><path fill="#000000" fill-opacity="0.0" d="m456.0 457.8084c-152.09818 0 -291.30658 -55.456696 -304.19635 -110.91339c-12.889755 -55.456696 100.53912 -110.91339 201.07826 -110.91339" fill-rule="evenodd"/><path stroke="#595959" stroke-width="4.0" stroke-linejoin="round" stroke-linecap="butt" stroke-dasharray="4.0,12.0" d="m456.0 457.8084c-152.09818 0 -291.30658 -55.456696 -304.19635 -110.91339c-6.44487 -27.728363 18.68991 -55.456696 58.00328 -76.25296c19.656708 -10.398132 42.858063 -19.063232 67.428925 -25.128815c12.285431 -3.0327911 24.913269 -5.41568 37.611572 -7.04039c3.1745605 -0.40618896 6.353546 -0.7649689 9.532684 -1.0746765c0.7947998 -0.077438354 1.5895691 -0.15179443 2.3843079 -0.22306824c0.39736938 -0.035629272 0.79473877 -0.070495605 1.1920776 -0.10456848l0.9466553 -0.07936096" fill-rule="evenodd"/><path fill="#595959" stroke="#595959" stroke-width="4.0" stroke-linecap="butt" d="m329.18106 243.59227l17.858398 -7.36467l-18.414246 -5.837494z" fill-rule="evenodd"/></g></svg>